# xmcd
#
# Track frame offsets:
#	150
#	17656
#	36105
#	54008
#	71775
#	86267
#	110463
#	131427
#	149653
#	166635
#	183628
#	198679
#	216575
#	236431
#
# Disc length: 3427 seconds
#
# Revision: 2
# Processed by: cddbd v1.5.2PL0 Copyright (c) Steve Scherf et al.
# Submitted via: audiograbber 1.82.02
#
DISCID=c50d610e
DTITLE=KRS-One and Buckshot - Survival Skills
DYEAR=2009
DGENRE=Hip-Hop
TTITLE0=Survival Skills
TTITLE1=Robot
TTITLE2=The Way I Live
TTITLE3=Clean Up Crew
TTITLE4=Oh Really
TTITLE5=Connection
TTITLE6=Runnin' Away
TTITLE7=Think Of All The Things
TTITLE8=One Shot
TTITLE9=Amazin'
TTITLE10=Hear No Evil
TTITLE11=Murder 1
TTITLE12=We Made It
TTITLE13=Past-Present-Future
EXTD=
EXTT0=
EXTT1=
EXTT2=
EXTT3=
EXTT4=
EXTT5=
EXTT6=
EXTT7=
EXTT8=
EXTT9=
EXTT10=
EXTT11=
EXTT12=
EXTT13=
PLAYORDER=
